<?xml version="1.0" encoding="utf-8" standalone="no"?>
<!DOCTYPE svg PUBLIC "-//W3C//DTD SVG 1.1//EN"
  "http://www.w3.org/Graphics/SVG/1.1/DTD/svg11.dtd">
<svg xmlns:xlink="http://www.w3.org/1999/xlink" width="504pt" height="504pt" viewBox="0 0 504 504" xmlns="http://www.w3.org/2000/svg" version="1.1">
 <metadata>
  <rdf:RDF xmlns:dc="http://purl.org/dc/elements/1.1/" xmlns:cc="http://creativecommons.org/ns#" xmlns:rdf="http://www.w3.org/1999/02/22-rdf-syntax-ns#">
   <cc:Work>
    <dc:type rdf:resource="http://purl.org/dc/dcmitype/StillImage"/>
    <dc:date>2025-09-29T18:59:38.231330</dc:date>
    <dc:format>image/svg+xml</dc:format>
    <dc:creator>
     <cc:Agent>
      <dc:title>Matplotlib v3.10.6, https://matplotlib.org/</dc:title>
     </cc:Agent>
    </dc:creator>
   </cc:Work>
  </rdf:RDF>
 </metadata>
 <defs>
  <style type="text/css">*{stroke-linejoin: round; stroke-linecap: butt}</style>
 </defs>
 <g id="figure_1">
  <g id="patch_1">
   <path d="M 0 504 
L 504 504 
L 504 0 
L 0 0 
z
" style="fill: #ffffff"/>
  </g>
  <g id="axes_1">
   <g id="patch_2">
    <path d="M 47.82125 461.93875 
L 416.001017 461.93875 
L 416.001017 113.400583 
L 47.82125 113.400583 
z
" style="fill: #ffffff"/>
   </g>
   <g id="PathCollection_1">
    <defs>
     <path id="m5ba1976c2e" d="M 0 3 
C 0.795609 3 1.55874 2.683901 2.12132 2.12132 
C 2.683901 1.55874 3 0.795609 3 0 
C 3 -0.795609 2.683901 -1.55874 2.12132 -2.12132 
C 1.55874 -2.683901 0.795609 -3 0 -3 
C -0.795609 -3 -1.55874 -2.683901 -2.12132 -2.12132 
C -2.683901 -1.55874 -3 -0.795609 -3 0 
C -3 0.795609 -2.683901 1.55874 -2.12132 2.12132 
C -1.55874 2.683901 -0.795609 3 0 3 
z
" style="stroke: #ffffff; stroke-width: 0.48"/>
    </defs>
    <g clip-path="url(#p1cf96db91c)">
     <use xlink:href="#m5ba1976c2e" x="130.019342" y="321.968174" style="fill: #4169e1; stroke: #ffffff; stroke-width: 0.48"/>
     <use xlink:href="#m5ba1976c2e" x="126.279926" y="299.102502" style="fill: #4169e1; stroke: #ffffff; stroke-width: 0.48"/>
     <use xlink:href="#m5ba1976c2e" x="179.301426" y="384.03214" style="fill: #4169e1; stroke: #ffffff; stroke-width: 0.48"/>
     <use xlink:href="#m5ba1976c2e" x="186.526526" y="393.831714" style="fill: #4169e1; stroke: #ffffff; stroke-width: 0.48"/>
     <use xlink:href="#m5ba1976c2e" x="268.04911" y="429.763483" style="fill: #4169e1; stroke: #ffffff; stroke-width: 0.48"/>
     <use xlink:href="#m5ba1976c2e" x="280.257324" y="433.030008" style="fill: #4169e1; stroke: #ffffff; stroke-width: 0.48"/>
     <use xlink:href="#m5ba1976c2e" x="328.062777" y="442.829582" style="fill: #4169e1; stroke: #ffffff; stroke-width: 0.48"/>
     <use xlink:href="#m5ba1976c2e" x="399.265573" y="446.096106" style="fill: #4169e1; stroke: #ffffff; stroke-width: 0.48"/>
     <use xlink:href="#m5ba1976c2e" x="200.814504" y="423.230434" style="fill: #4169e1; stroke: #ffffff; stroke-width: 0.48"/>
     <use xlink:href="#m5ba1976c2e" x="167.188882" y="380.765616" style="fill: #4169e1; stroke: #ffffff; stroke-width: 0.48"/>
     <use xlink:href="#m5ba1976c2e" x="145.875461" y="367.699517" style="fill: #4169e1; stroke: #ffffff; stroke-width: 0.48"/>
     <use xlink:href="#m5ba1976c2e" x="214.14579" y="413.430861" style="fill: #4169e1; stroke: #ffffff; stroke-width: 0.48"/>
     <use xlink:href="#m5ba1976c2e" x="140.988016" y="341.567321" style="fill: #4169e1; stroke: #ffffff; stroke-width: 0.48"/>
     <use xlink:href="#m5ba1976c2e" x="119.138017" y="276.236831" style="fill: #4169e1; stroke: #ffffff; stroke-width: 0.48"/>
     <use xlink:href="#m5ba1976c2e" x="131.670674" y="335.034272" style="fill: #4169e1; stroke: #ffffff; stroke-width: 0.48"/>
     <use xlink:href="#m5ba1976c2e" x="143.787378" y="338.300797" style="fill: #4169e1; stroke: #ffffff; stroke-width: 0.48"/>
     <use xlink:href="#m5ba1976c2e" x="139.765115" y="357.899944" style="fill: #4169e1; stroke: #ffffff; stroke-width: 0.48"/>
     <use xlink:href="#m5ba1976c2e" x="122.012251" y="286.036404" style="fill: #4169e1; stroke: #ffffff; stroke-width: 0.48"/>
     <use xlink:href="#m5ba1976c2e" x="94.754865" y="220.705914" style="fill: #4169e1; stroke: #ffffff; stroke-width: 0.48"/>
     <use xlink:href="#m5ba1976c2e" x="93.207521" y="217.439389" style="fill: #4169e1; stroke: #ffffff; stroke-width: 0.48"/>
     <use xlink:href="#m5ba1976c2e" x="113.797183" y="312.168601" style="fill: #4169e1; stroke: #ffffff; stroke-width: 0.48"/>
     <use xlink:href="#m5ba1976c2e" x="163.166618" y="374.232567" style="fill: #4169e1; stroke: #ffffff; stroke-width: 0.48"/>
     <use xlink:href="#m5ba1976c2e" x="87.766859" y="171.708046" style="fill: #4169e1; stroke: #ffffff; stroke-width: 0.48"/>
     <use xlink:href="#m5ba1976c2e" x="210.127687" y="416.697385" style="fill: #4169e1; stroke: #ffffff; stroke-width: 0.48"/>
     <use xlink:href="#m5ba1976c2e" x="96.817991" y="210.90634" style="fill: #4169e1; stroke: #ffffff; stroke-width: 0.48"/>
     <use xlink:href="#m5ba1976c2e" x="75.924683" y="148.842374" style="fill: #4169e1; stroke: #ffffff; stroke-width: 0.48"/>
     <use xlink:href="#m5ba1976c2e" x="84.356046" y="178.241095" style="fill: #4169e1; stroke: #ffffff; stroke-width: 0.48"/>
     <use xlink:href="#m5ba1976c2e" x="216.329542" y="400.364763" style="fill: #4169e1; stroke: #ffffff; stroke-width: 0.48"/>
     <use xlink:href="#m5ba1976c2e" x="80.500164" y="165.174997" style="fill: #4169e1; stroke: #ffffff; stroke-width: 0.48"/>
     <use xlink:href="#m5ba1976c2e" x="73.711815" y="135.776276" style="fill: #4169e1; stroke: #ffffff; stroke-width: 0.48"/>
     <use xlink:href="#m5ba1976c2e" x="98.843681" y="201.106767" style="fill: #4169e1; stroke: #ffffff; stroke-width: 0.48"/>
     <use xlink:href="#m5ba1976c2e" x="303.001622" y="439.563057" style="fill: #4169e1; stroke: #ffffff; stroke-width: 0.48"/>
     <use xlink:href="#m5ba1976c2e" x="276.176828" y="426.496959" style="fill: #4169e1; stroke: #ffffff; stroke-width: 0.48"/>
     <use xlink:href="#m5ba1976c2e" x="97.612461" y="181.50762" style="fill: #4169e1; stroke: #ffffff; stroke-width: 0.48"/>
     <use xlink:href="#m5ba1976c2e" x="129.403732" y="295.835978" style="fill: #4169e1; stroke: #ffffff; stroke-width: 0.48"/>
     <use xlink:href="#m5ba1976c2e" x="110.523635" y="194.573718" style="fill: #4169e1; stroke: #ffffff; stroke-width: 0.48"/>
     <use xlink:href="#m5ba1976c2e" x="73.8366" y="132.509752" style="fill: #4169e1; stroke: #ffffff; stroke-width: 0.48"/>
     <use xlink:href="#m5ba1976c2e" x="128.076842" y="263.170733" style="fill: #4169e1; stroke: #ffffff; stroke-width: 0.48"/>
     <use xlink:href="#m5ba1976c2e" x="179.817208" y="364.432993" style="fill: #4169e1; stroke: #ffffff; stroke-width: 0.48"/>
     <use xlink:href="#m5ba1976c2e" x="87.783497" y="161.908473" style="fill: #4169e1; stroke: #ffffff; stroke-width: 0.48"/>
     <use xlink:href="#m5ba1976c2e" x="192.898923" y="403.631287" style="fill: #4169e1; stroke: #ffffff; stroke-width: 0.48"/>
     <use xlink:href="#m5ba1976c2e" x="108.111109" y="259.904208" style="fill: #4169e1; stroke: #ffffff; stroke-width: 0.48"/>
     <use xlink:href="#m5ba1976c2e" x="111.130926" y="269.703782" style="fill: #4169e1; stroke: #ffffff; stroke-width: 0.48"/>
     <use xlink:href="#m5ba1976c2e" x="108.98045" y="253.371159" style="fill: #4169e1; stroke: #ffffff; stroke-width: 0.48"/>
     <use xlink:href="#m5ba1976c2e" x="132.161498" y="315.435125" style="fill: #4169e1; stroke: #ffffff; stroke-width: 0.48"/>
     <use xlink:href="#m5ba1976c2e" x="99.405217" y="204.373291" style="fill: #4169e1; stroke: #ffffff; stroke-width: 0.48"/>
     <use xlink:href="#m5ba1976c2e" x="82.500897" y="191.307193" style="fill: #4169e1; stroke: #ffffff; stroke-width: 0.48"/>
     <use xlink:href="#m5ba1976c2e" x="150.600685" y="325.234699" style="fill: #4169e1; stroke: #ffffff; stroke-width: 0.48"/>
     <use xlink:href="#m5ba1976c2e" x="105.10377" y="279.503355" style="fill: #4169e1; stroke: #ffffff; stroke-width: 0.48"/>
     <use xlink:href="#m5ba1976c2e" x="116.080764" y="282.76988" style="fill: #4169e1; stroke: #ffffff; stroke-width: 0.48"/>
     <use xlink:href="#m5ba1976c2e" x="91.527072" y="237.038537" style="fill: #4169e1; stroke: #ffffff; stroke-width: 0.48"/>
     <use xlink:href="#m5ba1976c2e" x="101.588969" y="240.305061" style="fill: #4169e1; stroke: #ffffff; stroke-width: 0.48"/>
     <use xlink:href="#m5ba1976c2e" x="99.338665" y="246.83811" style="fill: #4169e1; stroke: #ffffff; stroke-width: 0.48"/>
     <use xlink:href="#m5ba1976c2e" x="64.556694" y="129.243227" style="fill: #4169e1; stroke: #ffffff; stroke-width: 0.48"/>
     <use xlink:href="#m5ba1976c2e" x="124.770018" y="305.635552" style="fill: #4169e1; stroke: #ffffff; stroke-width: 0.48"/>
     <use xlink:href="#m5ba1976c2e" x="140.060442" y="344.833846" style="fill: #4169e1; stroke: #ffffff; stroke-width: 0.48"/>
     <use xlink:href="#m5ba1976c2e" x="97.554228" y="230.505488" style="fill: #4169e1; stroke: #ffffff; stroke-width: 0.48"/>
     <use xlink:href="#m5ba1976c2e" x="84.888466" y="174.974571" style="fill: #4169e1; stroke: #ffffff; stroke-width: 0.48"/>
     <use xlink:href="#m5ba1976c2e" x="100.96504" y="250.104635" style="fill: #4169e1; stroke: #ffffff; stroke-width: 0.48"/>
     <use xlink:href="#m5ba1976c2e" x="124.84073" y="308.902076" style="fill: #4169e1; stroke: #ffffff; stroke-width: 0.48"/>
     <use xlink:href="#m5ba1976c2e" x="83.540779" y="152.108899" style="fill: #4169e1; stroke: #ffffff; stroke-width: 0.48"/>
     <use xlink:href="#m5ba1976c2e" x="95.973607" y="223.972438" style="fill: #4169e1; stroke: #ffffff; stroke-width: 0.48"/>
     <use xlink:href="#m5ba1976c2e" x="81.070019" y="145.57585" style="fill: #4169e1; stroke: #ffffff; stroke-width: 0.48"/>
     <use xlink:href="#m5ba1976c2e" x="134.902627" y="354.633419" style="fill: #4169e1; stroke: #ffffff; stroke-width: 0.48"/>
     <use xlink:href="#m5ba1976c2e" x="100.769543" y="266.437257" style="fill: #4169e1; stroke: #ffffff; stroke-width: 0.48"/>
     <use xlink:href="#m5ba1976c2e" x="85.479119" y="188.040669" style="fill: #4169e1; stroke: #ffffff; stroke-width: 0.48"/>
     <use xlink:href="#m5ba1976c2e" x="77.517782" y="158.641948" style="fill: #4169e1; stroke: #ffffff; stroke-width: 0.48"/>
     <use xlink:href="#m5ba1976c2e" x="79.892873" y="142.309325" style="fill: #4169e1; stroke: #ffffff; stroke-width: 0.48"/>
     <use xlink:href="#m5ba1976c2e" x="102.341844" y="233.772012" style="fill: #4169e1; stroke: #ffffff; stroke-width: 0.48"/>
     <use xlink:href="#m5ba1976c2e" x="128.118437" y="328.501223" style="fill: #4169e1; stroke: #ffffff; stroke-width: 0.48"/>
     <use xlink:href="#m5ba1976c2e" x="95.033554" y="207.639816" style="fill: #4169e1; stroke: #ffffff; stroke-width: 0.48"/>
     <use xlink:href="#m5ba1976c2e" x="194.841422" y="410.164336" style="fill: #4169e1; stroke: #ffffff; stroke-width: 0.48"/>
     <use xlink:href="#m5ba1976c2e" x="112.441177" y="292.569453" style="fill: #4169e1; stroke: #ffffff; stroke-width: 0.48"/>
     <use xlink:href="#m5ba1976c2e" x="173.45313" y="397.098238" style="fill: #4169e1; stroke: #ffffff; stroke-width: 0.48"/>
     <use xlink:href="#m5ba1976c2e" x="143.371426" y="351.366895" style="fill: #4169e1; stroke: #ffffff; stroke-width: 0.48"/>
     <use xlink:href="#m5ba1976c2e" x="137.87669" y="370.966042" style="fill: #4169e1; stroke: #ffffff; stroke-width: 0.48"/>
     <use xlink:href="#m5ba1976c2e" x="169.310241" y="387.298665" style="fill: #4169e1; stroke: #ffffff; stroke-width: 0.48"/>
    </g>
   </g>
   <g id="matplotlib.axis_1">
    <g id="xtick_1">
     <g id="line2d_1">
      <defs>
       <path id="m412a09ede4" d="M 0 0 
L 0 3.5 
" style="stroke: #000000; stroke-width: 0.8"/>
      </defs>
      <g>
       <use xlink:href="#m412a09ede4" x="72.039684" y="461.93875" style="stroke: #000000; stroke-width: 0.8"/>
      </g>
     </g>
     <g id="text_1">
      <!-- 10000 -->
      <g transform="translate(56.133434 476.537188) scale(0.1 -0.1)">
       <defs>
        <path id="DejaVuSans-31" d="M 794 531 
L 1825 531 
L 1825 4091 
L 703 3866 
L 703 4441 
L 1819 4666 
L 2450 4666 
L 2450 531 
L 3481 531 
L 3481 0 
L 794 0 
L 794 531 
z
" transform="scale(0.015625)"/>
        <path id="DejaVuSans-30" d="M 2034 4250 
Q 1547 4250 1301 3770 
Q 1056 3291 1056 2328 
Q 1056 1369 1301 889 
Q 1547 409 2034 409 
Q 2525 409 2770 889 
Q 3016 1369 3016 2328 
Q 3016 3291 2770 3770 
Q 2525 4250 2034 4250 
z
M 2034 4750 
Q 2819 4750 3233 4129 
Q 3647 3509 3647 2328 
Q 3647 1150 3233 529 
Q 2819 -91 2034 -91 
Q 1250 -91 836 529 
Q 422 1150 422 2328 
Q 422 3509 836 4129 
Q 1250 4750 2034 4750 
z
" transform="scale(0.015625)"/>
       </defs>
       <use xlink:href="#DejaVuSans-31"/>
       <use xlink:href="#DejaVuSans-30" transform="translate(63.623047 0)"/>
       <use xlink:href="#DejaVuSans-30" transform="translate(127.246094 0)"/>
       <use xlink:href="#DejaVuSans-30" transform="translate(190.869141 0)"/>
       <use xlink:href="#DejaVuSans-30" transform="translate(254.492188 0)"/>
      </g>
     </g>
    </g>
    <g id="xtick_2">
     <g id="line2d_2">
      <g>
       <use xlink:href="#m412a09ede4" x="113.634962" y="461.93875" style="stroke: #000000; stroke-width: 0.8"/>
      </g>
     </g>
     <g id="text_2">
      <!-- 20000 -->
      <g transform="translate(97.728712 476.537188) scale(0.1 -0.1)">
       <defs>
        <path id="DejaVuSans-32" d="M 1228 531 
L 3431 531 
L 3431 0 
L 469 0 
L 469 531 
Q 828 903 1448 1529 
Q 2069 2156 2228 2338 
Q 2531 2678 2651 2914 
Q 2772 3150 2772 3378 
Q 2772 3750 2511 3984 
Q 2250 4219 1831 4219 
Q 1534 4219 1204 4116 
Q 875 4013 500 3803 
L 500 4441 
Q 881 4594 1212 4672 
Q 1544 4750 1819 4750 
Q 2544 4750 2975 4387 
Q 3406 4025 3406 3419 
Q 3406 3131 3298 2873 
Q 3191 2616 2906 2266 
Q 2828 2175 2409 1742 
Q 1991 1309 1228 531 
z
" transform="scale(0.015625)"/>
       </defs>
       <use xlink:href="#DejaVuSans-32"/>
       <use xlink:href="#DejaVuSans-30" transform="translate(63.623047 0)"/>
       <use xlink:href="#DejaVuSans-30" transform="translate(127.246094 0)"/>
       <use xlink:href="#DejaVuSans-30" transform="translate(190.869141 0)"/>
       <use xlink:href="#DejaVuSans-30" transform="translate(254.492188 0)"/>
      </g>
     </g>
    </g>
    <g id="xtick_3">
     <g id="line2d_3">
      <g>
       <use xlink:href="#m412a09ede4" x="155.230239" y="461.93875" style="stroke: #000000; stroke-width: 0.8"/>
      </g>
     </g>
     <g id="text_3">
      <!-- 30000 -->
      <g transform="translate(139.323989 476.537188) scale(0.1 -0.1)">
       <defs>
        <path id="DejaVuSans-33" d="M 2597 2516 
Q 3050 2419 3304 2112 
Q 3559 1806 3559 1356 
Q 3559 666 3084 287 
Q 2609 -91 1734 -91 
Q 1441 -91 1130 -33 
Q 819 25 488 141 
L 488 750 
Q 750 597 1062 519 
Q 1375 441 1716 441 
Q 2309 441 2620 675 
Q 2931 909 2931 1356 
Q 2931 1769 2642 2001 
Q 2353 2234 1838 2234 
L 1294 2234 
L 1294 2753 
L 1863 2753 
Q 2328 2753 2575 2939 
Q 2822 3125 2822 3475 
Q 2822 3834 2567 4026 
Q 2313 4219 1838 4219 
Q 1578 4219 1281 4162 
Q 984 4106 628 3988 
L 628 4550 
Q 988 4650 1302 4700 
Q 1616 4750 1894 4750 
Q 2613 4750 3031 4423 
Q 3450 4097 3450 3541 
Q 3450 3153 3228 2886 
Q 3006 2619 2597 2516 
z
" transform="scale(0.015625)"/>
       </defs>
       <use xlink:href="#DejaVuSans-33"/>
       <use xlink:href="#DejaVuSans-30" transform="translate(63.623047 0)"/>
       <use xlink:href="#DejaVuSans-30" transform="translate(127.246094 0)"/>
       <use xlink:href="#DejaVuSans-30" transform="translate(190.869141 0)"/>
       <use xlink:href="#DejaVuSans-30" transform="translate(254.492188 0)"/>
      </g>
     </g>
    </g>
    <g id="xtick_4">
     <g id="line2d_4">
      <g>
       <use xlink:href="#m412a09ede4" x="196.825517" y="461.93875" style="stroke: #000000; stroke-width: 0.8"/>
      </g>
     </g>
     <g id="text_4">
      <!-- 40000 -->
      <g transform="translate(180.919267 476.537188) scale(0.1 -0.1)">
       <defs>
        <path id="DejaVuSans-34" d="M 2419 4116 
L 825 1625 
L 2419 1625 
L 2419 4116 
z
M 2253 4666 
L 3047 4666 
L 3047 1625 
L 3713 1625 
L 3713 1100 
L 3047 1100 
L 3047 0 
L 2419 0 
L 2419 1100 
L 313 1100 
L 313 1709 
L 2253 4666 
z
" transform="scale(0.015625)"/>
       </defs>
       <use xlink:href="#DejaVuSans-34"/>
       <use xlink:href="#DejaVuSans-30" transform="translate(63.623047 0)"/>
       <use xlink:href="#DejaVuSans-30" transform="translate(127.246094 0)"/>
       <use xlink:href="#DejaVuSans-30" transform="translate(190.869141 0)"/>
       <use xlink:href="#DejaVuSans-30" transform="translate(254.492188 0)"/>
      </g>
     </g>
    </g>
    <g id="xtick_5">
     <g id="line2d_5">
      <g>
       <use xlink:href="#m412a09ede4" x="238.420794" y="461.93875" style="stroke: #000000; stroke-width: 0.8"/>
      </g>
     </g>
     <g id="text_5">
      <!-- 50000 -->
      <g transform="translate(222.514544 476.537188) scale(0.1 -0.1)">
       <defs>
        <path id="DejaVuSans-35" d="M 691 4666 
L 3169 4666 
L 3169 4134 
L 1269 4134 
L 1269 2991 
Q 1406 3038 1543 3061 
Q 1681 3084 1819 3084 
Q 2600 3084 3056 2656 
Q 3513 2228 3513 1497 
Q 3513 744 3044 326 
Q 2575 -91 1722 -91 
Q 1428 -91 1123 -41 
Q 819 9 494 109 
L 494 744 
Q 775 591 1075 516 
Q 1375 441 1709 441 
Q 2250 441 2565 725 
Q 2881 1009 2881 1497 
Q 2881 1984 2565 2268 
Q 2250 2553 1709 2553 
Q 1456 2553 1204 2497 
Q 953 2441 691 2322 
L 691 4666 
z
" transform="scale(0.015625)"/>
       </defs>
       <use xlink:href="#DejaVuSans-35"/>
       <use xlink:href="#DejaVuSans-30" transform="translate(63.623047 0)"/>
       <use xlink:href="#DejaVuSans-30" transform="translate(127.246094 0)"/>
       <use xlink:href="#DejaVuSans-30" transform="translate(190.869141 0)"/>
       <use xlink:href="#DejaVuSans-30" transform="translate(254.492188 0)"/>
      </g>
     </g>
    </g>
    <g id="xtick_6">
     <g id="line2d_6">
      <g>
       <use xlink:href="#m412a09ede4" x="280.016072" y="461.93875" style="stroke: #000000; stroke-width: 0.8"/>
      </g>
     </g>
     <g id="text_6">
      <!-- 60000 -->
      <g transform="translate(264.109822 476.537188) scale(0.1 -0.1)">
       <defs>
        <path id="DejaVuSans-36" d="M 2113 2584 
Q 1688 2584 1439 2293 
Q 1191 2003 1191 1497 
Q 1191 994 1439 701 
Q 1688 409 2113 409 
Q 2538 409 2786 701 
Q 3034 994 3034 1497 
Q 3034 2003 2786 2293 
Q 2538 2584 2113 2584 
z
M 3366 4563 
L 3366 3988 
Q 3128 4100 2886 4159 
Q 2644 4219 2406 4219 
Q 1781 4219 1451 3797 
Q 1122 3375 1075 2522 
Q 1259 2794 1537 2939 
Q 1816 3084 2150 3084 
Q 2853 3084 3261 2657 
Q 3669 2231 3669 1497 
Q 3669 778 3244 343 
Q 2819 -91 2113 -91 
Q 1303 -91 875 529 
Q 447 1150 447 2328 
Q 447 3434 972 4092 
Q 1497 4750 2381 4750 
Q 2619 4750 2861 4703 
Q 3103 4656 3366 4563 
z
" transform="scale(0.015625)"/>
       </defs>
       <use xlink:href="#DejaVuSans-36"/>
       <use xlink:href="#DejaVuSans-30" transform="translate(63.623047 0)"/>
       <use xlink:href="#DejaVuSans-30" transform="translate(127.246094 0)"/>
       <use xlink:href="#DejaVuSans-30" transform="translate(190.869141 0)"/>
       <use xlink:href="#DejaVuSans-30" transform="translate(254.492188 0)"/>
      </g>
     </g>
    </g>
    <g id="xtick_7">
     <g id="line2d_7">
      <g>
       <use xlink:href="#m412a09ede4" x="321.611349" y="461.93875" style="stroke: #000000; stroke-width: 0.8"/>
      </g>
     </g>
     <g id="text_7">
      <!-- 70000 -->
      <g transform="translate(305.705099 476.537188) scale(0.1 -0.1)">
       <defs>
        <path id="DejaVuSans-37" d="M 525 4666 
L 3525 4666 
L 3525 4397 
L 1831 0 
L 1172 0 
L 2766 4134 
L 525 4134 
L 525 4666 
z
" transform="scale(0.015625)"/>
       </defs>
       <use xlink:href="#DejaVuSans-37"/>
       <use xlink:href="#DejaVuSans-30" transform="translate(63.623047 0)"/>
       <use xlink:href="#DejaVuSans-30" transform="translate(127.246094 0)"/>
       <use xlink:href="#DejaVuSans-30" transform="translate(190.869141 0)"/>
       <use xlink:href="#DejaVuSans-30" transform="translate(254.492188 0)"/>
      </g>
     </g>
    </g>
    <g id="xtick_8">
     <g id="line2d_8">
      <g>
       <use xlink:href="#m412a09ede4" x="363.206627" y="461.93875" style="stroke: #000000; stroke-width: 0.8"/>
      </g>
     </g>
     <g id="text_8">
      <!-- 80000 -->
      <g transform="translate(347.300377 476.537188) scale(0.1 -0.1)">
       <defs>
        <path id="DejaVuSans-38" d="M 2034 2216 
Q 1584 2216 1326 1975 
Q 1069 1734 1069 1313 
Q 1069 891 1326 650 
Q 1584 409 2034 409 
Q 2484 409 2743 651 
Q 3003 894 3003 1313 
Q 3003 1734 2745 1975 
Q 2488 2216 2034 2216 
z
M 1403 2484 
Q 997 2584 770 2862 
Q 544 3141 544 3541 
Q 544 4100 942 4425 
Q 1341 4750 2034 4750 
Q 2731 4750 3128 4425 
Q 3525 4100 3525 3541 
Q 3525 3141 3298 2862 
Q 3072 2584 2669 2484 
Q 3125 2378 3379 2068 
Q 3634 1759 3634 1313 
Q 3634 634 3220 271 
Q 2806 -91 2034 -91 
Q 1263 -91 848 271 
Q 434 634 434 1313 
Q 434 1759 690 2068 
Q 947 2378 1403 2484 
z
M 1172 3481 
Q 1172 3119 1398 2916 
Q 1625 2713 2034 2713 
Q 2441 2713 2670 2916 
Q 2900 3119 2900 3481 
Q 2900 3844 2670 4047 
Q 2441 4250 2034 4250 
Q 1625 4250 1398 4047 
Q 1172 3844 1172 3481 
z
" transform="scale(0.015625)"/>
       </defs>
       <use xlink:href="#DejaVuSans-38"/>
       <use xlink:href="#DejaVuSans-30" transform="translate(63.623047 0)"/>
       <use xlink:href="#DejaVuSans-30" transform="translate(127.246094 0)"/>
       <use xlink:href="#DejaVuSans-30" transform="translate(190.869141 0)"/>
       <use xlink:href="#DejaVuSans-30" transform="translate(254.492188 0)"/>
      </g>
     </g>
    </g>
    <g id="xtick_9">
     <g id="line2d_9">
      <g>
       <use xlink:href="#m412a09ede4" x="404.801904" y="461.93875" style="stroke: #000000; stroke-width: 0.8"/>
      </g>
     </g>
     <g id="text_9">
      <!-- 90000 -->
      <g transform="translate(388.895654 476.537188) scale(0.1 -0.1)">
       <defs>
        <path id="DejaVuSans-39" d="M 703 97 
L 703 672 
Q 941 559 1184 500 
Q 1428 441 1663 441 
Q 2288 441 2617 861 
Q 2947 1281 2994 2138 
Q 2813 1869 2534 1725 
Q 2256 1581 1919 1581 
Q 1219 1581 811 2004 
Q 403 2428 403 3163 
Q 403 3881 828 4315 
Q 1253 4750 1959 4750 
Q 2769 4750 3195 4129 
Q 3622 3509 3622 2328 
Q 3622 1225 3098 567 
Q 2575 -91 1691 -91 
Q 1453 -91 1209 -44 
Q 966 3 703 97 
z
M 1959 2075 
Q 2384 2075 2632 2365 
Q 2881 2656 2881 3163 
Q 2881 3666 2632 3958 
Q 2384 4250 1959 4250 
Q 1534 4250 1286 3958 
Q 1038 3666 1038 3163 
Q 1038 2656 1286 2365 
Q 1534 2075 1959 2075 
z
" transform="scale(0.015625)"/>
       </defs>
       <use xlink:href="#DejaVuSans-39"/>
       <use xlink:href="#DejaVuSans-30" transform="translate(63.623047 0)"/>
       <use xlink:href="#DejaVuSans-30" transform="translate(127.246094 0)"/>
       <use xlink:href="#DejaVuSans-30" transform="translate(190.869141 0)"/>
       <use xlink:href="#DejaVuSans-30" transform="translate(254.492188 0)"/>
      </g>
     </g>
    </g>
    <g id="text_10">
     <!-- per_capita_income_ -->
     <g transform="translate(182.390821 490.215312) scale(0.1 -0.1)">
      <defs>
       <path id="DejaVuSans-70" d="M 1159 525 
L 1159 -1331 
L 581 -1331 
L 581 3500 
L 1159 3500 
L 1159 2969 
Q 1341 3281 1617 3432 
Q 1894 3584 2278 3584 
Q 2916 3584 3314 3078 
Q 3713 2572 3713 1747 
Q 3713 922 3314 415 
Q 2916 -91 2278 -91 
Q 1894 -91 1617 61 
Q 1341 213 1159 525 
z
M 3116 1747 
Q 3116 2381 2855 2742 
Q 2594 3103 2138 3103 
Q 1681 3103 1420 2742 
Q 1159 2381 1159 1747 
Q 1159 1113 1420 752 
Q 1681 391 2138 391 
Q 2594 391 2855 752 
Q 3116 1113 3116 1747 
z
" transform="scale(0.015625)"/>
       <path id="DejaVuSans-65" d="M 3597 1894 
L 3597 1613 
L 953 1613 
Q 991 1019 1311 708 
Q 1631 397 2203 397 
Q 2534 397 2845 478 
Q 3156 559 3463 722 
L 3463 178 
Q 3153 47 2828 -22 
Q 2503 -91 2169 -91 
Q 1331 -91 842 396 
Q 353 884 353 1716 
Q 353 2575 817 3079 
Q 1281 3584 2069 3584 
Q 2775 3584 3186 3129 
Q 3597 2675 3597 1894 
z
M 3022 2063 
Q 3016 2534 2758 2815 
Q 2500 3097 2075 3097 
Q 1594 3097 1305 2825 
Q 1016 2553 972 2059 
L 3022 2063 
z
" transform="scale(0.015625)"/>
       <path id="DejaVuSans-72" d="M 2631 2963 
Q 2534 3019 2420 3045 
Q 2306 3072 2169 3072 
Q 1681 3072 1420 2755 
Q 1159 2438 1159 1844 
L 1159 0 
L 581 0 
L 581 3500 
L 1159 3500 
L 1159 2956 
Q 1341 3275 1631 3429 
Q 1922 3584 2338 3584 
Q 2397 3584 2469 3576 
Q 2541 3569 2628 3553 
L 2631 2963 
z
" transform="scale(0.015625)"/>
       <path id="DejaVuSans-5f" d="M 3263 -1063 
L 3263 -1509 
L -63 -1509 
L -63 -1063 
L 3263 -1063 
z
" transform="scale(0.015625)"/>
       <path id="DejaVuSans-63" d="M 3122 3366 
L 3122 2828 
Q 2878 2963 2633 3030 
Q 2388 3097 2138 3097 
Q 1578 3097 1268 2742 
Q 959 2388 959 1747 
Q 959 1106 1268 751 
Q 1578 397 2138 397 
Q 2388 397 2633 464 
Q 2878 531 3122 666 
L 3122 134 
Q 2881 22 2623 -34 
Q 2366 -91 2075 -91 
Q 1284 -91 818 406 
Q 353 903 353 1747 
Q 353 2603 823 3093 
Q 1294 3584 2113 3584 
Q 2378 3584 2631 3529 
Q 2884 3475 3122 3366 
z
" transform="scale(0.015625)"/>
       <path id="DejaVuSans-61" d="M 2194 1759 
Q 1497 1759 1228 1600 
Q 959 1441 959 1056 
Q 959 750 1161 570 
Q 1363 391 1709 391 
Q 2188 391 2477 730 
Q 2766 1069 2766 1631 
L 2766 1759 
L 2194 1759 
z
M 3341 1997 
L 3341 0 
L 2766 0 
L 2766 531 
Q 2569 213 2275 61 
Q 1981 -91 1556 -91 
Q 1019 -91 701 211 
Q 384 513 384 1019 
Q 384 1609 779 1909 
Q 1175 2209 1959 2209 
L 2766 2209 
L 2766 2266 
Q 2766 2663 2505 2880 
Q 2244 3097 1772 3097 
Q 1472 3097 1187 3025 
Q 903 2953 641 2809 
L 641 3341 
Q 956 3463 1253 3523 
Q 1550 3584 1831 3584 
Q 2591 3584 2966 3190 
Q 3341 2797 3341 1997 
z
" transform="scale(0.015625)"/>
       <path id="DejaVuSans-69" d="M 603 3500 
L 1178 3500 
L 1178 0 
L 603 0 
L 603 3500 
z
M 603 4863 
L 1178 4863 
L 1178 4134 
L 603 4134 
L 603 4863 
z
" transform="scale(0.015625)"/>
       <path id="DejaVuSans-74" d="M 1172 4494 
L 1172 3500 
L 2356 3500 
L 2356 3053 
L 1172 3053 
L 1172 1153 
Q 1172 725 1289 603 
Q 1406 481 1766 481 
L 2356 481 
L 2356 0 
L 1766 0 
Q 1100 0 847 248 
Q 594 497 594 1153 
L 594 3053 
L 172 3053 
L 172 3500 
L 594 3500 
L 594 4494 
L 1172 4494 
z
" transform="scale(0.015625)"/>
       <path id="DejaVuSans-6e" d="M 3513 2113 
L 3513 0 
L 2938 0 
L 2938 2094 
Q 2938 2591 2744 2837 
Q 2550 3084 2163 3084 
Q 1697 3084 1428 2787 
Q 1159 2491 1159 1978 
L 1159 0 
L 581 0 
L 581 3500 
L 1159 3500 
L 1159 2956 
Q 1366 3272 1645 3428 
Q 1925 3584 2291 3584 
Q 2894 3584 3203 3211 
Q 3513 2838 3513 2113 
z
" transform="scale(0.015625)"/>
       <path id="DejaVuSans-6f" d="M 1959 3097 
Q 1497 3097 1228 2736 
Q 959 2375 959 1747 
Q 959 1119 1226 758 
Q 1494 397 1959 397 
Q 2419 397 2687 759 
Q 2956 1122 2956 1747 
Q 2956 2369 2687 2733 
Q 2419 3097 1959 3097 
z
M 1959 3584 
Q 2709 3584 3137 3096 
Q 3566 2609 3566 1747 
Q 3566 888 3137 398 
Q 2709 -91 1959 -91 
Q 1206 -91 779 398 
Q 353 888 353 1747 
Q 353 2609 779 3096 
Q 1206 3584 1959 3584 
z
" transform="scale(0.015625)"/>
       <path id="DejaVuSans-6d" d="M 3328 2828 
Q 3544 3216 3844 3400 
Q 4144 3584 4550 3584 
Q 5097 3584 5394 3201 
Q 5691 2819 5691 2113 
L 5691 0 
L 5113 0 
L 5113 2094 
Q 5113 2597 4934 2840 
Q 4756 3084 4391 3084 
Q 3944 3084 3684 2787 
Q 3425 2491 3425 1978 
L 3425 0 
L 2847 0 
L 2847 2094 
Q 2847 2600 2669 2842 
Q 2491 3084 2119 3084 
Q 1678 3084 1418 2786 
Q 1159 2488 1159 1978 
L 1159 0 
L 581 0 
L 581 3500 
L 1159 3500 
L 1159 2956 
Q 1356 3278 1631 3431 
Q 1906 3584 2284 3584 
Q 2666 3584 2933 3390 
Q 3200 3197 3328 2828 
z
" transform="scale(0.015625)"/>
      </defs>
      <use xlink:href="#DejaVuSans-70"/>
      <use xlink:href="#DejaVuSans-65" transform="translate(63.476562 0)"/>
      <use xlink:href="#DejaVuSans-72" transform="translate(125 0)"/>
      <use xlink:href="#DejaVuSans-5f" transform="translate(166.113281 0)"/>
      <use xlink:href="#DejaVuSans-63" transform="translate(216.113281 0)"/>
      <use xlink:href="#DejaVuSans-61" transform="translate(271.09375 0)"/>
      <use xlink:href="#DejaVuSans-70" transform="translate(332.373047 0)"/>
      <use xlink:href="#DejaVuSans-69" transform="translate(395.849609 0)"/>
      <use xlink:href="#DejaVuSans-74" transform="translate(423.632812 0)"/>
      <use xlink:href="#DejaVuSans-61" transform="translate(462.841797 0)"/>
      <use xlink:href="#DejaVuSans-5f" transform="translate(524.121094 0)"/>
      <use xlink:href="#DejaVuSans-69" transform="translate(574.121094 0)"/>
      <use xlink:href="#DejaVuSans-6e" transform="translate(601.904297 0)"/>
      <use xlink:href="#DejaVuSans-63" transform="translate(665.283203 0)"/>
      <use xlink:href="#DejaVuSans-6f" transform="translate(720.263672 0)"/>
      <use xlink:href="#DejaVuSans-6d" transform="translate(781.445312 0)"/>
      <use xlink:href="#DejaVuSans-65" transform="translate(878.857422 0)"/>
      <use xlink:href="#DejaVuSans-5f" transform="translate(940.380859 0)"/>
     </g>
    </g>
   </g>
   <g id="matplotlib.axis_2">
    <g id="ytick_1">
     <g id="line2d_10">
      <defs>
       <path id="md0c2ed8e15" d="M 0 0 
L -3.5 0 
" style="stroke: #000000; stroke-width: 0.8"/>
      </defs>
      <g>
       <use xlink:href="#md0c2ed8e15" x="47.82125" y="449.362631" style="stroke: #000000; stroke-width: 0.8"/>
      </g>
     </g>
     <g id="text_11">
      <!-- 0 -->
      <g transform="translate(34.45875 453.161849) scale(0.1 -0.1)">
       <use xlink:href="#DejaVuSans-30"/>
      </g>
     </g>
    </g>
    <g id="ytick_2">
     <g id="line2d_11">
      <g>
       <use xlink:href="#md0c2ed8e15" x="47.82125" y="384.03214" style="stroke: #000000; stroke-width: 0.8"/>
      </g>
     </g>
     <g id="text_12">
      <!-- 20 -->
      <g transform="translate(28.09625 387.831359) scale(0.1 -0.1)">
       <use xlink:href="#DejaVuSans-32"/>
       <use xlink:href="#DejaVuSans-30" transform="translate(63.623047 0)"/>
      </g>
     </g>
    </g>
    <g id="ytick_3">
     <g id="line2d_12">
      <g>
       <use xlink:href="#md0c2ed8e15" x="47.82125" y="318.70165" style="stroke: #000000; stroke-width: 0.8"/>
      </g>
     </g>
     <g id="text_13">
      <!-- 40 -->
      <g transform="translate(28.09625 322.500868) scale(0.1 -0.1)">
       <use xlink:href="#DejaVuSans-34"/>
       <use xlink:href="#DejaVuSans-30" transform="translate(63.623047 0)"/>
      </g>
     </g>
    </g>
    <g id="ytick_4">
     <g id="line2d_13">
      <g>
       <use xlink:href="#md0c2ed8e15" x="47.82125" y="253.371159" style="stroke: #000000; stroke-width: 0.8"/>
      </g>
     </g>
     <g id="text_14">
      <!-- 60 -->
      <g transform="translate(28.09625 257.170378) scale(0.1 -0.1)">
       <use xlink:href="#DejaVuSans-36"/>
       <use xlink:href="#DejaVuSans-30" transform="translate(63.623047 0)"/>
      </g>
     </g>
    </g>
    <g id="ytick_5">
     <g id="line2d_14">
      <g>
       <use xlink:href="#md0c2ed8e15" x="47.82125" y="188.040669" style="stroke: #000000; stroke-width: 0.8"/>
      </g>
     </g>
     <g id="text_15">
      <!-- 80 -->
      <g transform="translate(28.09625 191.839887) scale(0.1 -0.1)">
       <use xlink:href="#DejaVuSans-38"/>
       <use xlink:href="#DejaVuSans-30" transform="translate(63.623047 0)"/>
      </g>
     </g>
    </g>
    <g id="ytick_6">
     <g id="line2d_15">
      <g>
       <use xlink:href="#md0c2ed8e15" x="47.82125" y="122.710178" style="stroke: #000000; stroke-width: 0.8"/>
      </g>
     </g>
     <g id="text_16">
      <!-- 100 -->
      <g transform="translate(21.73375 126.509397) scale(0.1 -0.1)">
       <use xlink:href="#DejaVuSans-31"/>
       <use xlink:href="#DejaVuSans-30" transform="translate(63.623047 0)"/>
       <use xlink:href="#DejaVuSans-30" transform="translate(127.246094 0)"/>
      </g>
     </g>
    </g>
    <g id="text_17">
     <!-- hardship_index -->
     <g transform="translate(15.375938 325.561854) rotate(-90) scale(0.1 -0.1)">
      <defs>
       <path id="DejaVuSans-68" d="M 3513 2113 
L 3513 0 
L 2938 0 
L 2938 2094 
Q 2938 2591 2744 2837 
Q 2550 3084 2163 3084 
Q 1697 3084 1428 2787 
Q 1159 2491 1159 1978 
L 1159 0 
L 581 0 
L 581 4863 
L 1159 4863 
L 1159 2956 
Q 1366 3272 1645 3428 
Q 1925 3584 2291 3584 
Q 2894 3584 3203 3211 
Q 3513 2838 3513 2113 
z
" transform="scale(0.015625)"/>
       <path id="DejaVuSans-64" d="M 2906 2969 
L 2906 4863 
L 3481 4863 
L 3481 0 
L 2906 0 
L 2906 525 
Q 2725 213 2448 61 
Q 2172 -91 1784 -91 
Q 1150 -91 751 415 
Q 353 922 353 1747 
Q 353 2572 751 3078 
Q 1150 3584 1784 3584 
Q 2172 3584 2448 3432 
Q 2725 3281 2906 2969 
z
M 947 1747 
Q 947 1113 1208 752 
Q 1469 391 1925 391 
Q 2381 391 2643 752 
Q 2906 1113 2906 1747 
Q 2906 2381 2643 2742 
Q 2381 3103 1925 3103 
Q 1469 3103 1208 2742 
Q 947 2381 947 1747 
z
" transform="scale(0.015625)"/>
       <path id="DejaVuSans-73" d="M 2834 3397 
L 2834 2853 
Q 2591 2978 2328 3040 
Q 2066 3103 1784 3103 
Q 1356 3103 1142 2972 
Q 928 2841 928 2578 
Q 928 2378 1081 2264 
Q 1234 2150 1697 2047 
L 1894 2003 
Q 2506 1872 2764 1633 
Q 3022 1394 3022 966 
Q 3022 478 2636 193 
Q 2250 -91 1575 -91 
Q 1294 -91 989 -36 
Q 684 19 347 128 
L 347 722 
Q 666 556 975 473 
Q 1284 391 1588 391 
Q 1994 391 2212 530 
Q 2431 669 2431 922 
Q 2431 1156 2273 1281 
Q 2116 1406 1581 1522 
L 1381 1569 
Q 847 1681 609 1914 
Q 372 2147 372 2553 
Q 372 3047 722 3315 
Q 1072 3584 1716 3584 
Q 2034 3584 2315 3537 
Q 2597 3491 2834 3397 
z
" transform="scale(0.015625)"/>
       <path id="DejaVuSans-78" d="M 3513 3500 
L 2247 1797 
L 3578 0 
L 2900 0 
L 1881 1375 
L 863 0 
L 184 0 
L 1544 1831 
L 300 3500 
L 978 3500 
L 1906 2253 
L 2834 3500 
L 3513 3500 
z
" transform="scale(0.015625)"/>
      </defs>
      <use xlink:href="#DejaVuSans-68"/>
      <use xlink:href="#DejaVuSans-61" transform="translate(63.378906 0)"/>
      <use xlink:href="#DejaVuSans-72" transform="translate(124.658203 0)"/>
      <use xlink:href="#DejaVuSans-64" transform="translate(164.021484 0)"/>
      <use xlink:href="#DejaVuSans-73" transform="translate(227.498047 0)"/>
      <use xlink:href="#DejaVuSans-68" transform="translate(279.597656 0)"/>
      <use xlink:href="#DejaVuSans-69" transform="translate(342.976562 0)"/>
      <use xlink:href="#DejaVuSans-70" transform="translate(370.759766 0)"/>
      <use xlink:href="#DejaVuSans-5f" transform="translate(434.236328 0)"/>
      <use xlink:href="#DejaVuSans-69" transform="translate(484.236328 0)"/>
      <use xlink:href="#DejaVuSans-6e" transform="translate(512.019531 0)"/>
      <use xlink:href="#DejaVuSans-64" transform="translate(575.398438 0)"/>
      <use xlink:href="#DejaVuSans-65" transform="translate(638.875 0)"/>
      <use xlink:href="#DejaVuSans-78" transform="translate(698.648438 0)"/>
     </g>
    </g>
   </g>
   <g id="patch_3">
    <path d="M 47.82125 461.93875 
L 47.82125 113.400583 
" style="fill: none; stroke: #000000; stroke-width: 0.8; stroke-linejoin: miter; stroke-linecap: square"/>
   </g>
   <g id="patch_4">
    <path d="M 47.82125 461.93875 
L 416.001017 461.93875 
" style="fill: none; stroke: #000000; stroke-width: 0.8; stroke-linejoin: miter; stroke-linecap: square"/>
   </g>
  </g>
  <g id="axes_2">
   <g id="patch_5">
    <path d="M 47.82125 96.535833 
L 416.001017 96.535833 
L 416.001017 40.32 
L 47.82125 40.32 
z
" style="fill: #ffffff"/>
   </g>
   <g id="patch_6">
    <path d="M 64.556694 96.535833 
L 88.464471 96.535833 
L 88.464471 56.381667 
L 64.556694 56.381667 
z
" clip-path="url(#p17fc22ab65)" style="fill: #4169e1; fill-opacity: 0.75; stroke: #000000; stroke-linejoin: miter"/>
   </g>
   <g id="patch_7">
    <path d="M 88.464471 96.535833 
L 112.372248 96.535833 
L 112.372248 42.996944 
L 88.464471 42.996944 
z
" clip-path="url(#p17fc22ab65)" style="fill: #4169e1; fill-opacity: 0.75; stroke: #000000; stroke-linejoin: miter"/>
   </g>
   <g id="patch_8">
    <path d="M 112.372248 96.535833 
L 136.280025 96.535833 
L 136.280025 56.381667 
L 112.372248 56.381667 
z
" clip-path="url(#p17fc22ab65)" style="fill: #4169e1; fill-opacity: 0.75; stroke: #000000; stroke-linejoin: miter"/>
   </g>
   <g id="patch_9">
    <path d="M 136.280025 96.535833 
L 160.187802 96.535833 
L 160.187802 72.443333 
L 136.280025 72.443333 
z
" clip-path="url(#p17fc22ab65)" style="fill: #4169e1; fill-opacity: 0.75; stroke: #000000; stroke-linejoin: miter"/>
   </g>
   <g id="patch_10">
    <path d="M 160.187802 96.535833 
L 184.095579 96.535833 
L 184.095579 80.474167 
L 160.187802 80.474167 
z
" clip-path="url(#p17fc22ab65)" style="fill: #4169e1; fill-opacity: 0.75; stroke: #000000; stroke-linejoin: miter"/>
   </g>
   <g id="patch_11">
    <path d="M 184.095579 96.535833 
L 208.003356 96.535833 
L 208.003356 85.828056 
L 184.095579 85.828056 
z
" clip-path="url(#p17fc22ab65)" style="fill: #4169e1; fill-opacity: 0.75; stroke: #000000; stroke-linejoin: miter"/>
   </g>
   <g id="patch_12">
    <path d="M 208.003356 96.535833 
L 231.911133 96.535833 
L 231.911133 88.505 
L 208.003356 88.505 
z
" clip-path="url(#p17fc22ab65)" style="fill: #4169e1; fill-opacity: 0.75; stroke: #000000; stroke-linejoin: miter"/>
   </g>
   <g id="patch_13">
    <path d="M 231.911133 96.535833 
L 255.81891 96.535833 
L 255.81891 96.535833 
L 231.911133 96.535833 
z
" clip-path="url(#p17fc22ab65)" style="fill: #4169e1; fill-opacity: 0.75; stroke: #000000; stroke-linejoin: miter"/>
   </g>
   <g id="patch_14">
    <path d="M 255.81891 96.535833 
L 279.726687 96.535833 
L 279.726687 91.181944 
L 255.81891 91.181944 
z
" clip-path="url(#p17fc22ab65)" style="fill: #4169e1; fill-opacity: 0.75; stroke: #000000; stroke-linejoin: miter"/>
   </g>
   <g id="patch_15">
    <path d="M 279.726687 96.535833 
L 303.634465 96.535833 
L 303.634465 91.181944 
L 279.726687 91.181944 
z
" clip-path="url(#p17fc22ab65)" style="fill: #4169e1; fill-opacity: 0.75; stroke: #000000; stroke-linejoin: miter"/>
   </g>
   <g id="patch_16">
    <path d="M 303.634465 96.535833 
L 327.542242 96.535833 
L 327.542242 96.535833 
L 303.634465 96.535833 
z
" clip-path="url(#p17fc22ab65)" style="fill: #4169e1; fill-opacity: 0.75; stroke: #000000; stroke-linejoin: miter"/>
   </g>
   <g id="patch_17">
    <path d="M 327.542242 96.535833 
L 351.450019 96.535833 
L 351.450019 93.858889 
L 327.542242 93.858889 
z
" clip-path="url(#p17fc22ab65)" style="fill: #4169e1; fill-opacity: 0.75; stroke: #000000; stroke-linejoin: miter"/>
   </g>
   <g id="patch_18">
    <path d="M 351.450019 96.535833 
L 375.357796 96.535833 
L 375.357796 96.535833 
L 351.450019 96.535833 
z
" clip-path="url(#p17fc22ab65)" style="fill: #4169e1; fill-opacity: 0.75; stroke: #000000; stroke-linejoin: miter"/>
   </g>
   <g id="patch_19">
    <path d="M 375.357796 96.535833 
L 399.265573 96.535833 
L 399.265573 93.858889 
L 375.357796 93.858889 
z
" clip-path="url(#p17fc22ab65)" style="fill: #4169e1; fill-opacity: 0.75; stroke: #000000; stroke-linejoin: miter"/>
   </g>
   <g id="matplotlib.axis_3">
    <g id="xtick_10">
     <g id="line2d_16">
      <g>
       <use xlink:href="#m412a09ede4" x="72.039684" y="96.535833" style="stroke: #000000; stroke-width: 0.8"/>
      </g>
     </g>
    </g>
    <g id="xtick_11">
     <g id="line2d_17">
      <g>
       <use xlink:href="#m412a09ede4" x="113.634962" y="96.535833" style="stroke: #000000; stroke-width: 0.8"/>
      </g>
     </g>
    </g>
    <g id="xtick_12">
     <g id="line2d_18">
      <g>
       <use xlink:href="#m412a09ede4" x="155.230239" y="96.535833" style="stroke: #000000; stroke-width: 0.8"/>
      </g>
     </g>
    </g>
    <g id="xtick_13">
     <g id="line2d_19">
      <g>
       <use xlink:href="#m412a09ede4" x="196.825517" y="96.535833" style="stroke: #000000; stroke-width: 0.8"/>
      </g>
     </g>
    </g>
    <g id="xtick_14">
     <g id="line2d_20">
      <g>
       <use xlink:href="#m412a09ede4" x="238.420794" y="96.535833" style="stroke: #000000; stroke-width: 0.8"/>
      </g>
     </g>
    </g>
    <g id="xtick_15">
     <g id="line2d_21">
      <g>
       <use xlink:href="#m412a09ede4" x="280.016072" y="96.535833" style="stroke: #000000; stroke-width: 0.8"/>
      </g>
     </g>
    </g>
    <g id="xtick_16">
     <g id="line2d_22">
      <g>
       <use xlink:href="#m412a09ede4" x="321.611349" y="96.535833" style="stroke: #000000; stroke-width: 0.8"/>
      </g>
     </g>
    </g>
    <g id="xtick_17">
     <g id="line2d_23">
      <g>
       <use xlink:href="#m412a09ede4" x="363.206627" y="96.535833" style="stroke: #000000; stroke-width: 0.8"/>
      </g>
     </g>
    </g>
    <g id="xtick_18">
     <g id="line2d_24">
      <g>
       <use xlink:href="#m412a09ede4" x="404.801904" y="96.535833" style="stroke: #000000; stroke-width: 0.8"/>
      </g>
     </g>
    </g>
   </g>
   <g id="matplotlib.axis_4">
    <g id="ytick_7"/>
    <g id="ytick_8"/>
   </g>
   <g id="patch_20">
    <path d="M 47.82125 96.535833 
L 416.001017 96.535833 
" style="fill: none; stroke: #000000; stroke-width: 0.8; stroke-linejoin: miter; stroke-linecap: square"/>
   </g>
  </g>
  <g id="axes_3">
   <g id="patch_21">
    <path d="M 433.816167 461.93875 
L 493.2 461.93875 
L 493.2 113.400583 
L 433.816167 113.400583 
z
" style="fill: #ffffff"/>
   </g>
   <g id="patch_22">
    <path d="M 433.816167 446.096106 
L 490.372198 446.096106 
L 490.372198 406.489496 
L 433.816167 406.489496 
z
" clip-path="url(#p60846ad4e4)" style="fill: #4169e1; fill-opacity: 0.75; stroke: #000000; stroke-linejoin: miter"/>
   </g>
   <g id="patch_23">
    <path d="M 433.816167 406.489496 
L 490.372198 406.489496 
L 490.372198 366.882886 
L 433.816167 366.882886 
z
" clip-path="url(#p60846ad4e4)" style="fill: #4169e1; fill-opacity: 0.75; stroke: #000000; stroke-linejoin: miter"/>
   </g>
   <g id="patch_24">
    <path d="M 433.816167 366.882886 
L 484.716595 366.882886 
L 484.716595 327.276277 
L 433.816167 327.276277 
z
" clip-path="url(#p60846ad4e4)" style="fill: #4169e1; fill-opacity: 0.75; stroke: #000000; stroke-linejoin: miter"/>
   </g>
   <g id="patch_25">
    <path d="M 433.816167 327.276277 
L 484.716595 327.276277 
L 484.716595 287.669667 
L 433.816167 287.669667 
z
" clip-path="url(#p60846ad4e4)" style="fill: #4169e1; fill-opacity: 0.75; stroke: #000000; stroke-linejoin: miter"/>
   </g>
   <g id="patch_26">
    <path d="M 433.816167 287.669667 
L 490.372198 287.669667 
L 490.372198 248.063057 
L 433.816167 248.063057 
z
" clip-path="url(#p60846ad4e4)" style="fill: #4169e1; fill-opacity: 0.75; stroke: #000000; stroke-linejoin: miter"/>
   </g>
   <g id="patch_27">
    <path d="M 433.816167 248.063057 
L 484.716595 248.063057 
L 484.716595 208.456447 
L 433.816167 208.456447 
z
" clip-path="url(#p60846ad4e4)" style="fill: #4169e1; fill-opacity: 0.75; stroke: #000000; stroke-linejoin: miter"/>
   </g>
   <g id="patch_28">
    <path d="M 433.816167 208.456447 
L 490.372198 208.456447 
L 490.372198 168.849837 
L 433.816167 168.849837 
z
" clip-path="url(#p60846ad4e4)" style="fill: #4169e1; fill-opacity: 0.75; stroke: #000000; stroke-linejoin: miter"/>
   </g>
   <g id="patch_29">
    <path d="M 433.816167 168.849837 
L 490.372198 168.849837 
L 490.372198 129.243227 
L 433.816167 129.243227 
z
" clip-path="url(#p60846ad4e4)" style="fill: #4169e1; fill-opacity: 0.75; stroke: #000000; stroke-linejoin: miter"/>
   </g>
   <g id="matplotlib.axis_5">
    <g id="xtick_19"/>
    <g id="xtick_20"/>
   </g>
   <g id="matplotlib.axis_6">
    <g id="ytick_9">
     <g id="line2d_25">
      <g>
       <use xlink:href="#md0c2ed8e15" x="433.816167" y="449.362631" style="stroke: #000000; stroke-width: 0.8"/>
      </g>
     </g>
    </g>
    <g id="ytick_10">
     <g id="line2d_26">
      <g>
       <use xlink:href="#md0c2ed8e15" x="433.816167" y="384.03214" style="stroke: #000000; stroke-width: 0.8"/>
      </g>
     </g>
    </g>
    <g id="ytick_11">
     <g id="line2d_27">
      <g>
       <use xlink:href="#md0c2ed8e15" x="433.816167" y="318.70165" style="stroke: #000000; stroke-width: 0.8"/>
      </g>
     </g>
    </g>
    <g id="ytick_12">
     <g id="line2d_28">
      <g>
       <use xlink:href="#md0c2ed8e15" x="433.816167" y="253.371159" style="stroke: #000000; stroke-width: 0.8"/>
      </g>
     </g>
    </g>
    <g id="ytick_13">
     <g id="line2d_29">
      <g>
       <use xlink:href="#md0c2ed8e15" x="433.816167" y="188.040669" style="stroke: #000000; stroke-width: 0.8"/>
      </g>
     </g>
    </g>
    <g id="ytick_14">
     <g id="line2d_30">
      <g>
       <use xlink:href="#md0c2ed8e15" x="433.816167" y="122.710178" style="stroke: #000000; stroke-width: 0.8"/>
      </g>
     </g>
    </g>
   </g>
   <g id="patch_30">
    <path d="M 433.816167 461.93875 
L 433.816167 113.400583 
" style="fill: none; stroke: #000000; stroke-width: 0.8; stroke-linejoin: miter; stroke-linecap: square"/>
   </g>
  </g>
  <g id="text_18">
   <!-- Per Capita Income vs Hardship Index -->
   <g transform="translate(123.078594 20.717812) scale(0.14 -0.14)">
    <defs>
     <path id="DejaVuSans-50" d="M 1259 4147 
L 1259 2394 
L 2053 2394 
Q 2494 2394 2734 2622 
Q 2975 2850 2975 3272 
Q 2975 3691 2734 3919 
Q 2494 4147 2053 4147 
L 1259 4147 
z
M 628 4666 
L 2053 4666 
Q 2838 4666 3239 4311 
Q 3641 3956 3641 3272 
Q 3641 2581 3239 2228 
Q 2838 1875 2053 1875 
L 1259 1875 
L 1259 0 
L 628 0 
L 628 4666 
z
" transform="scale(0.015625)"/>
     <path id="DejaVuSans-20" transform="scale(0.015625)"/>
     <path id="DejaVuSans-43" d="M 4122 4306 
L 4122 3641 
Q 3803 3938 3442 4084 
Q 3081 4231 2675 4231 
Q 1875 4231 1450 3742 
Q 1025 3253 1025 2328 
Q 1025 1406 1450 917 
Q 1875 428 2675 428 
Q 3081 428 3442 575 
Q 3803 722 4122 1019 
L 4122 359 
Q 3791 134 3420 21 
Q 3050 -91 2638 -91 
Q 1578 -91 968 557 
Q 359 1206 359 2328 
Q 359 3453 968 4101 
Q 1578 4750 2638 4750 
Q 3056 4750 3426 4639 
Q 3797 4528 4122 4306 
z
" transform="scale(0.015625)"/>
     <path id="DejaVuSans-49" d="M 628 4666 
L 1259 4666 
L 1259 0 
L 628 0 
L 628 4666 
z
" transform="scale(0.015625)"/>
     <path id="DejaVuSans-76" d="M 191 3500 
L 800 3500 
L 1894 563 
L 2988 3500 
L 3597 3500 
L 2284 0 
L 1503 0 
L 191 3500 
z
" transform="scale(0.015625)"/>
     <path id="DejaVuSans-48" d="M 628 4666 
L 1259 4666 
L 1259 2753 
L 3553 2753 
L 3553 4666 
L 4184 4666 
L 4184 0 
L 3553 0 
L 3553 2222 
L 1259 2222 
L 1259 0 
L 628 0 
L 628 4666 
z
" transform="scale(0.015625)"/>
    </defs>
    <use xlink:href="#DejaVuSans-50"/>
    <use xlink:href="#DejaVuSans-65" transform="translate(56.677734 0)"/>
    <use xlink:href="#DejaVuSans-72" transform="translate(118.201172 0)"/>
    <use xlink:href="#DejaVuSans-20" transform="translate(159.314453 0)"/>
    <use xlink:href="#DejaVuSans-43" transform="translate(191.101562 0)"/>
    <use xlink:href="#DejaVuSans-61" transform="translate(260.925781 0)"/>
    <use xlink:href="#DejaVuSans-70" transform="translate(322.205078 0)"/>
    <use xlink:href="#DejaVuSans-69" transform="translate(385.681641 0)"/>
    <use xlink:href="#DejaVuSans-74" transform="translate(413.464844 0)"/>
    <use xlink:href="#DejaVuSans-61" transform="translate(452.673828 0)"/>
    <use xlink:href="#DejaVuSans-20" transform="translate(513.953125 0)"/>
    <use xlink:href="#DejaVuSans-49" transform="translate(545.740234 0)"/>
    <use xlink:href="#DejaVuSans-6e" transform="translate(575.232422 0)"/>
    <use xlink:href="#DejaVuSans-63" transform="translate(638.611328 0)"/>
    <use xlink:href="#DejaVuSans-6f" transform="translate(693.591797 0)"/>
    <use xlink:href="#DejaVuSans-6d" transform="translate(754.773438 0)"/>
    <use xlink:href="#DejaVuSans-65" transform="translate(852.185547 0)"/>
    <use xlink:href="#DejaVuSans-20" transform="translate(913.708984 0)"/>
    <use xlink:href="#DejaVuSans-76" transform="translate(945.496094 0)"/>
    <use xlink:href="#DejaVuSans-73" transform="translate(1004.675781 0)"/>
    <use xlink:href="#DejaVuSans-20" transform="translate(1056.775391 0)"/>
    <use xlink:href="#DejaVuSans-48" transform="translate(1088.5625 0)"/>
    <use xlink:href="#DejaVuSans-61" transform="translate(1163.757812 0)"/>
    <use xlink:href="#DejaVuSans-72" transform="translate(1225.037109 0)"/>
    <use xlink:href="#DejaVuSans-64" transform="translate(1264.400391 0)"/>
    <use xlink:href="#DejaVuSans-73" transform="translate(1327.876953 0)"/>
    <use xlink:href="#DejaVuSans-68" transform="translate(1379.976562 0)"/>
    <use xlink:href="#DejaVuSans-69" transform="translate(1443.355469 0)"/>
    <use xlink:href="#DejaVuSans-70" transform="translate(1471.138672 0)"/>
    <use xlink:href="#DejaVuSans-20" transform="translate(1534.615234 0)"/>
    <use xlink:href="#DejaVuSans-49" transform="translate(1566.402344 0)"/>
    <use xlink:href="#DejaVuSans-6e" transform="translate(1595.894531 0)"/>
    <use xlink:href="#DejaVuSans-64" transform="translate(1659.273438 0)"/>
    <use xlink:href="#DejaVuSans-65" transform="translate(1722.75 0)"/>
    <use xlink:href="#DejaVuSans-78" transform="translate(1782.523438 0)"/>
   </g>
   <!-- Chicago Community Areas -->
   <g transform="translate(159.151563 36.39475) scale(0.14 -0.14)">
    <defs>
     <path id="DejaVuSans-67" d="M 2906 1791 
Q 2906 2416 2648 2759 
Q 2391 3103 1925 3103 
Q 1463 3103 1205 2759 
Q 947 2416 947 1791 
Q 947 1169 1205 825 
Q 1463 481 1925 481 
Q 2391 481 2648 825 
Q 2906 1169 2906 1791 
z
M 3481 434 
Q 3481 -459 3084 -895 
Q 2688 -1331 1869 -1331 
Q 1566 -1331 1297 -1286 
Q 1028 -1241 775 -1147 
L 775 -588 
Q 1028 -725 1275 -790 
Q 1522 -856 1778 -856 
Q 2344 -856 2625 -561 
Q 2906 -266 2906 331 
L 2906 616 
Q 2728 306 2450 153 
Q 2172 0 1784 0 
Q 1141 0 747 490 
Q 353 981 353 1791 
Q 353 2603 747 3093 
Q 1141 3584 1784 3584 
Q 2172 3584 2450 3431 
Q 2728 3278 2906 2969 
L 2906 3500 
L 3481 3500 
L 3481 434 
z
" transform="scale(0.015625)"/>
     <path id="DejaVuSans-75" d="M 544 1381 
L 544 3500 
L 1119 3500 
L 1119 1403 
Q 1119 906 1312 657 
Q 1506 409 1894 409 
Q 2359 409 2629 706 
Q 2900 1003 2900 1516 
L 2900 3500 
L 3475 3500 
L 3475 0 
L 2900 0 
L 2900 538 
Q 2691 219 2414 64 
Q 2138 -91 1772 -91 
Q 1169 -91 856 284 
Q 544 659 544 1381 
z
M 1991 3584 
L 1991 3584 
z
" transform="scale(0.015625)"/>
     <path id="DejaVuSans-79" d="M 2059 -325 
Q 1816 -950 1584 -1140 
Q 1353 -1331 966 -1331 
L 506 -1331 
L 506 -850 
L 844 -850 
Q 1081 -850 1212 -737 
Q 1344 -625 1503 -206 
L 1606 56 
L 191 3500 
L 800 3500 
L 1894 763 
L 2988 3500 
L 3597 3500 
L 2059 -325 
z
" transform="scale(0.015625)"/>
     <path id="DejaVuSans-41" d="M 2188 4044 
L 1331 1722 
L 3047 1722 
L 2188 4044 
z
M 1831 4666 
L 2547 4666 
L 4325 0 
L 3669 0 
L 3244 1197 
L 1141 1197 
L 716 0 
L 50 0 
L 1831 4666 
z
" transform="scale(0.015625)"/>
    </defs>
    <use xlink:href="#DejaVuSans-43"/>
    <use xlink:href="#DejaVuSans-68" transform="translate(69.824219 0)"/>
    <use xlink:href="#DejaVuSans-69" transform="translate(133.203125 0)"/>
    <use xlink:href="#DejaVuSans-63" transform="translate(160.986328 0)"/>
    <use xlink:href="#DejaVuSans-61" transform="translate(215.966797 0)"/>
    <use xlink:href="#DejaVuSans-67" transform="translate(277.246094 0)"/>
    <use xlink:href="#DejaVuSans-6f" transform="translate(340.722656 0)"/>
    <use xlink:href="#DejaVuSans-20" transform="translate(401.904297 0)"/>
    <use xlink:href="#DejaVuSans-43" transform="translate(433.691406 0)"/>
    <use xlink:href="#DejaVuSans-6f" transform="translate(503.515625 0)"/>
    <use xlink:href="#DejaVuSans-6d" transform="translate(564.697266 0)"/>
    <use xlink:href="#DejaVuSans-6d" transform="translate(662.109375 0)"/>
    <use xlink:href="#DejaVuSans-75" transform="translate(759.521484 0)"/>
    <use xlink:href="#DejaVuSans-6e" transform="translate(822.900391 0)"/>
    <use xlink:href="#DejaVuSans-69" transform="translate(886.279297 0)"/>
    <use xlink:href="#DejaVuSans-74" transform="translate(914.0625 0)"/>
    <use xlink:href="#DejaVuSans-79" transform="translate(953.271484 0)"/>
    <use xlink:href="#DejaVuSans-20" transform="translate(1012.451172 0)"/>
    <use xlink:href="#DejaVuSans-41" transform="translate(1044.238281 0)"/>
    <use xlink:href="#DejaVuSans-72" transform="translate(1112.646484 0)"/>
    <use xlink:href="#DejaVuSans-65" transform="translate(1151.509766 0)"/>
    <use xlink:href="#DejaVuSans-61" transform="translate(1213.033203 0)"/>
    <use xlink:href="#DejaVuSans-73" transform="translate(1274.3125 0)"/>
   </g>
  </g>
 </g>
 <defs>
  <clipPath id="p1cf96db91c">
   <rect x="47.82125" y="113.400583" width="368.179767" height="348.538167"/>
  </clipPath>
  <clipPath id="p17fc22ab65">
   <rect x="47.82125" y="40.32" width="368.179767" height="56.215833"/>
  </clipPath>
  <clipPath id="p60846ad4e4">
   <rect x="433.816167" y="113.400583" width="59.383833" height="348.538167"/>
  </clipPath>
 </defs>
</svg>
